<svg xmlns="http://www.w3.org/2000/svg" width="111" height="103" viewBox="0 0 111 103"><defs><style>.a,.b{fill:#c2145b;}.a{opacity:0.5;}.c{fill:#fff;}</style></defs><g transform="translate(-3576 -1798.5)"><g transform="translate(3575.543 1798.668)"><path class="a" d="M22,0H89a22,22,0,0,1,22,22V81a22,22,0,0,1-22,22H22A22,22,0,0,1,0,81V22A22,22,0,0,1,22,0Z" transform="translate(0.457 -0.168)"/><rect class="b" width="100" height="90.476" rx="19" transform="translate(5.957 6.094)"/></g><g transform="translate(2284 867.502)"><path class="c" d="M22.533,45a22.084,22.084,0,0,1-8.68-1.735,22.5,22.5,0,0,1-7.229-4.856l4-3.955a16.8,16.8,0,0,0,5.406,3.626,16.953,16.953,0,0,0,14.964-.967,16.754,16.754,0,0,0,6.153-6.152,16.522,16.522,0,0,0,2.264-8.46,16.515,16.515,0,0,0-2.264-8.459,16.766,16.766,0,0,0-6.153-6.152,16.5,16.5,0,0,0-8.46-2.262,16.156,16.156,0,0,0-7.69,1.889,17.462,17.462,0,0,0-5.932,5.1l2.374,2.373a1.823,1.823,0,0,1-.549,1.34,1.774,1.774,0,0,1-1.3.549H1.921a1.824,1.824,0,0,1-1.34-.549,1.823,1.823,0,0,1-.549-1.34V7.514a1.773,1.773,0,0,1,.549-1.3,1.824,1.824,0,0,1,1.34-.549L4.91,8.613a22.368,22.368,0,0,1,7.734-6.306A21.807,21.807,0,0,1,22.533,0a22.079,22.079,0,0,1,8.745,1.779A22.014,22.014,0,0,1,43.253,13.752a22.375,22.375,0,0,1,0,17.488A22.014,22.014,0,0,1,31.278,43.213a22.079,22.079,0,0,1-8.745,1.779Z" transform="translate(1324.968 960)"/><path class="c" d="M18.859,15.391v-3.36A6.926,6.926,0,0,1,21.9,13.613l0,0a.373.373,0,0,0,.235.088.379.379,0,0,0,.292-.142h0l1.416-2,0,0a.371.371,0,0,0-.031-.531,8.536,8.536,0,0,0-4.96-2.161V6.935h0a.383.383,0,0,0-.383-.383H16.954a.383.383,0,0,0-.383.383v1.88c-3.286.341-5.234,2.434-5.234,4.893,0,3.311,2.727,4.26,5.234,4.869v3.773a7.121,7.121,0,0,1-3.834-2.057.2.2,0,0,0-.02-.019l-.018-.017,0,0a.368.368,0,0,0-.57.112h0l-1.371,2.035,0,0a.367.367,0,0,0,.052.544l0,.006a8.974,8.974,0,0,0,5.769,2.532V27.3a.383.383,0,0,0,.383.383h1.521a.383.383,0,0,0,.383-.383h0V25.494c3.579-.366,5.356-2.458,5.356-5.161,0-3.335-2.824-4.309-5.356-4.942Zm-2.288-.56c-1-.316-1.68-.681-1.68-1.387,0-.827.609-1.411,1.68-1.558ZM18.859,22.4V19.141c1.072.341,1.826.731,1.826,1.533C20.685,21.453,20.1,22.158,18.859,22.4Z" transform="translate(1330.065 965.38)"/></g></g></svg>