<svg xmlns="http://www.w3.org/2000/svg" xmlns:xlink="http://www.w3.org/1999/xlink" width="111" height="103" viewBox="0 0 111 103"><defs><style>.a,.e{fill:#fff;}.a{stroke:#707070;}.b,.c{fill:#ff0c0c;}.b{opacity:0.5;}.d{clip-path:url(#a);}</style><clipPath id="a"><rect class="a" width="45" height="45" transform="translate(1814 1008)"/></clipPath></defs><g transform="translate(-3204 -2141.5)"><g transform="translate(3203.543 2141.667)"><rect class="b" width="111" height="103" rx="22" transform="translate(0.457 -0.168)"/><rect class="c" width="100" height="90.476" rx="19" transform="translate(5.957 6.094)"/></g><g class="d" transform="translate(1423 1162.5)"><g transform="translate(1774.116 1008.25)"><path class="e" d="M80.813,0H43.954V33.605a1.86,1.86,0,0,0,.524,1.322,1.715,1.715,0,0,0,1.232.509h7.474v7.254A1.83,1.83,0,0,0,54.771,44.5H80.813V0ZM53.841,11.73a6.5,6.5,0,0,0-.993-.263,11.264,11.264,0,0,1-1.481-.4,2.523,2.523,0,0,1-1.031-.7A1.9,1.9,0,0,1,49.9,9.042a2.25,2.25,0,0,1,.7-1.656,3.448,3.448,0,0,1,2-.878v-1.2h1.547V6.486a5.5,5.5,0,0,1,2.227.636L55.59,9a4.762,4.762,0,0,0-2.139-.57q-1,0-1,.483,0,.23.3.346a6.267,6.267,0,0,0,.976.247,10.04,10.04,0,0,1,1.481.378,2.579,2.579,0,0,1,1.048.7,1.869,1.869,0,0,1,.444,1.316,2.237,2.237,0,0,1-.664,1.607,3.378,3.378,0,0,1-1.892.9v1.218H52.6V14.461a7.342,7.342,0,0,1-1.574-.252,4.771,4.771,0,0,1-1.245-.516l.834-1.887a5.306,5.306,0,0,0,1.229.51,4.8,4.8,0,0,0,1.305.192,2.021,2.021,0,0,0,.768-.1.335.335,0,0,0,.23-.313Q54.142,11.85,53.841,11.73Zm21.3,20.342H72.531V29.834l-7.425,7.425-8.327-8.327L53.4,32.307,51.56,30.463l5.22-5.22,8.327,8.327,5.708-5.708H68.324V25.256h6.815Zm.087-10.514H49.671V18.95H75.226Zm0-5.215H63.05V13.735H75.226Zm0-5.215H63.05V8.521H75.226Z"/><path class="e" d="M50.577,433.87H45.711a4.35,4.35,0,0,1-1.757-.367v.128a6.7,6.7,0,0,0,6.695,6.695h.316a4.4,4.4,0,0,1-.388-1.809Z" transform="translate(0 -395.826)"/></g></g></g></svg>