<svg xmlns="http://www.w3.org/2000/svg" width="111" height="103" viewBox="0 0 111 103"><defs><style>.a,.b{fill:#8a44d9;}.a{opacity:0.5;}.c{fill:#fff;}</style></defs><g transform="translate(-2833 -2141.5)"><g transform="translate(2832.543 2141.667)"><rect class="a" width="111" height="103" rx="22" transform="translate(0.457 -0.168)"/><rect class="b" width="100" height="90.476" rx="19" transform="translate(5.957 6.094)"/></g><path class="c" d="M41.538,41.538H22.5A19.039,19.039,0,0,1,21.281,3.5c.412-.026.825-.037,1.232-.037A19.041,19.041,0,0,1,41.538,22.5ZM37.9,6.1A22.5,22.5,0,0,0,.045,21.069,22.333,22.333,0,0,0,6.1,37.906,22.588,22.588,0,0,0,22.5,45h20.77A1.73,1.73,0,0,0,45,43.271V22.5A22.59,22.59,0,0,0,37.905,6.1M30.289,28.558H14.711a1.731,1.731,0,0,0,0,3.461H30.288a1.731,1.731,0,0,0,0-3.461M14.711,16.444H30.288a1.732,1.732,0,1,0,0-3.464H14.711a1.732,1.732,0,1,0,0,3.464M9.518,20.771a1.731,1.731,0,0,0,0,3.46H35.479a1.731,1.731,0,0,0,0-3.461H9.518Z" transform="translate(2866 2170.5)"/></g></svg>