<svg xmlns="http://www.w3.org/2000/svg" width="111" height="103" viewBox="0 0 111 103"><defs><style>.a,.b{fill:#ff7c09;}.a{opacity:0.5;}.c{fill:#fff;}</style></defs><g transform="translate(-2833 -1798.5)"><g transform="translate(2832.543 1798.668)"><rect class="a" width="111" height="103" rx="22" transform="translate(0.457 -0.168)"/><rect class="b" width="100" height="90.476" rx="19" transform="translate(5.957 6.094)"/></g><g transform="translate(2866 1827.5)"><path class="c" d="M27.193,4.5C14.872,4.5,4.5,14.4,4.5,26.607V49.5l22.687-.025A22.488,22.488,0,0,0,27.193,4.5Zm9.8,32.147a13.92,13.92,0,0,1-15.255,2.607L11.2,43.156l4.047-9.869a13.587,13.587,0,0,1,.275-13.538A13.875,13.875,0,0,1,27.41,13.053v0h.015a13.833,13.833,0,0,1,12.828,8.6,13.605,13.605,0,0,1-3.26,14.995Z" transform="translate(-4.5 -4.5)"/></g></g></svg>