<svg xmlns="http://www.w3.org/2000/svg" xmlns:xlink="http://www.w3.org/1999/xlink" width="111" height="103" viewBox="0 0 111 103"><defs><style>.a,.e{fill:#fff;}.a{stroke:#707070;}.b,.c{fill:#14c21f;}.b{opacity:0.5;}.d{clip-path:url(#a);}</style><clipPath id="a"><rect class="a" width="45" height="45" transform="translate(592.056 973.97)"/></clipPath></defs><g transform="translate(-2461 -2141.5)"><g transform="translate(2460.543 2141.667)"><rect class="b" width="111" height="103" rx="22" transform="translate(0.457 -0.168)"/><rect class="c" width="100" height="90.476" rx="19" transform="translate(5.957 6.094)"/></g><g class="d" transform="translate(1901.944 1196.53)"><g transform="translate(578.008 975.042)"><path class="e" d="M266.461,274a9.961,9.961,0,1,0,10.045,9.961A9.972,9.972,0,0,0,266.461,274Zm3.057,8.756-3.348,4.018a1.256,1.256,0,0,1-2.088-.242l-1.339-2.679a1.256,1.256,0,1,1,2.246-1.123l.481.961,2.119-2.543a1.256,1.256,0,1,1,1.929,1.608Z" transform="translate(-219.911 -251.065)"/><path class="e" d="M46.009,7.153,40.915,1.885l-.007-.008A6.319,6.319,0,0,0,36.429,0H20.267A3.771,3.771,0,0,0,16.5,3.767V36.328A3.771,3.771,0,0,0,20.267,40.1h16.1A12.466,12.466,0,0,1,46.55,20.424q.636,0,1.256.062V11.55a6.242,6.242,0,0,0-1.8-4.4Zm-16.2,20.889h-6.7a1.256,1.256,0,0,1,0-2.511h6.7a1.256,1.256,0,0,1,0,2.511Zm0-6.7h-6.7a1.256,1.256,0,1,1,0-2.511h6.7a1.256,1.256,0,1,1,0,2.511Zm0-6.7h-6.7a1.256,1.256,0,0,1,0-2.511h6.7a1.256,1.256,0,0,1,0,2.511Zm8.036,6.7H36.506a1.256,1.256,0,1,1,0-2.511h1.339a1.256,1.256,0,1,1,0,2.511Zm0-6.7H36.506a1.256,1.256,0,0,1,0-2.511h1.339a1.256,1.256,0,0,1,0,2.511Z" transform="translate(0 0)"/></g></g></g></svg>