<svg xmlns="http://www.w3.org/2000/svg" xmlns:xlink="http://www.w3.org/1999/xlink" width="80" height="80" viewBox="0 0 80 80">
  <defs>
    <clipPath id="clip-path">
      <rect id="Rectangle_971" data-name="Rectangle 971" width="80" height="80" transform="translate(-4638 2427)" fill="#fff" stroke="#707070" stroke-width="1"/>
    </clipPath>
  </defs>
  <g id="Group_560" data-name="Group 560" transform="translate(-47.775 -48.311)">
    <g id="Mask_Group_25" data-name="Mask Group 25" transform="translate(4685.775 -2378.689)" clip-path="url(#clip-path)">
      <g id="Page-1" transform="translate(-4637.916 2427.084)">
        <g id="_031---University" data-name="031---University">
          <path id="Rectangle-path" d="M228.571,365.714h8.553V381.4h-8.553Z" transform="translate(-192.932 -308.692)" fill="#fff"/>
          <path id="Rectangle-path-2" data-name="Rectangle-path" d="M0,484.571H18.532v2.851H0Z" transform="translate(0 -409.017)" fill="#fff"/>
          <path id="Rectangle-path-3" data-name="Rectangle-path" d="M137.143,228.571h37.064v2.851H137.143Z" transform="translate(-115.76 -192.932)" fill="#fff"/>
          <path id="Shape" d="M31.019,213.137a2.851,2.851,0,0,1-2.851-2.851H18.525a1.417,1.417,0,0,0-1.274.788l-2.458,4.914H31.019Z" transform="translate(-12.486 -177.498)" fill="#fff"/>
          <path id="Shape-2" data-name="Shape" d="M186.791,296.505V265.143H155.429v31.362h8.553V279.4a1.425,1.425,0,0,1,1.426-1.425h11.4a1.425,1.425,0,0,1,1.426,1.425v17.107Zm-18.532-24.235a1.425,1.425,0,1,1-2.851,0V269.42a1.425,1.425,0,0,1,2.851,0Zm8.553,0a1.425,1.425,0,1,1-2.851,0V269.42a1.425,1.425,0,0,1,2.851,0Z" transform="translate(-131.194 -223.802)" fill="#fff"/>
          <path id="Shape-3" data-name="Shape" d="M163.082,137.561a1.425,1.425,0,0,0-1.009-.418H134.654a1.425,1.425,0,0,0-1.095.513l-4.325,5.189h39.133Z" transform="translate(-109.084 -115.76)" fill="#fff"/>
          <path id="Shape-4" data-name="Shape" d="M174.208,5h.019L155.675,0,137.143,4.978l18.539,5Z" transform="translate(-115.76)" fill="#fff"/>
          <path id="Shape-5" data-name="Shape" d="M393.143,215.988h16.226l-2.458-4.914a1.417,1.417,0,0,0-1.275-.788h-9.642a2.851,2.851,0,0,1-2.851,2.851Z" transform="translate(-331.844 -177.498)" fill="#fff"/>
          <path id="Shape-6" data-name="Shape" d="M193.529,66.152l-10.672-2.865v8.665h22.809V63.287l-10.672,2.865A2.818,2.818,0,0,1,193.529,66.152Z" transform="translate(-154.346 -53.419)" fill="#fff"/>
          <path id="Rectangle-path-4" data-name="Rectangle-path" d="M118.857,192h42.767v2.851H118.857Z" transform="translate(-100.325 -162.063)" fill="#fff"/>
          <path id="Shape-7" data-name="Shape" d="M29.1,265.143H9.143v31.362H29.1ZM16.271,290.8a1.426,1.426,0,1,1-2.851,0v-2.851a1.426,1.426,0,1,1,2.851,0Zm0-8.553a1.426,1.426,0,1,1-2.851,0V279.4a1.426,1.426,0,0,1,2.851,0Zm0-8.553a1.426,1.426,0,0,1-2.851,0v-2.851a1.426,1.426,0,0,1,2.851,0ZM24.824,290.8a1.426,1.426,0,1,1-2.851,0v-2.851a1.426,1.426,0,1,1,2.851,0Zm0-8.553a1.426,1.426,0,1,1-2.851,0V279.4a1.426,1.426,0,0,1,2.851,0Zm0-8.553a1.426,1.426,0,1,1-2.851,0v-2.851a1.426,1.426,0,1,1,2.851,0Z" transform="translate(-7.717 -223.802)" fill="#fff"/>
          <path id="Rectangle-path-5" data-name="Rectangle-path" d="M393.143,484.571h18.532v2.851H393.143Z" transform="translate(-331.844 -409.017)" fill="#fff"/>
          <path id="Shape-8" data-name="Shape" d="M161.377,484.571H137.143v4.277h37.066v-4.277Z" transform="translate(-115.76 -409.017)" fill="#fff"/>
          <path id="Shape-9" data-name="Shape" d="M394.815,265.143H374.857v31.362h19.958Zm-12.83,25.66a1.426,1.426,0,1,1-2.851,0v-2.851a1.426,1.426,0,1,1,2.851,0Zm0-8.553a1.426,1.426,0,1,1-2.851,0V279.4a1.426,1.426,0,0,1,2.851,0Zm0-8.553a1.426,1.426,0,1,1-2.851,0v-2.851a1.426,1.426,0,1,1,2.851,0Zm8.553,17.107a1.426,1.426,0,1,1-2.851,0v-2.851a1.426,1.426,0,1,1,2.851,0Zm0-8.553a1.426,1.426,0,1,1-2.851,0V279.4a1.426,1.426,0,0,1,2.851,0Zm0-8.553a1.426,1.426,0,0,1-2.851,0v-2.851a1.426,1.426,0,0,1,2.851,0Z" transform="translate(-316.409 -223.802)" fill="#fff"/>
          <path id="Shape-10" data-name="Shape" d="M360.136,50.651h-2.851v5.327a4.369,4.369,0,0,0,1.949,3.642,1.426,1.426,0,1,0,1.582-2.372,1.523,1.523,0,0,1-.68-1.27V50.651Z" transform="translate(-301.577 -42.753)" fill="#fff"/>
        </g>
      </g>
    </g>
  </g>
</svg>
