<svg xmlns="http://www.w3.org/2000/svg" xmlns:xlink="http://www.w3.org/1999/xlink" width="80" height="80" viewBox="0 0 80 80">
  <defs>
    <clipPath id="clip-path">
      <rect id="Rectangle_989" data-name="Rectangle 989" width="80" height="80" transform="translate(-4638 2427)" fill="#fff" stroke="#707070" stroke-width="1"/>
    </clipPath>
  </defs>
  <g id="Mask_Group_32" data-name="Mask Group 32" transform="translate(4638 -2427)" clip-path="url(#clip-path)">
    <g id="Group_714" data-name="Group 714" transform="translate(-4637.916 2427.464)">
      <g id="Group_713" data-name="Group 713" transform="translate(0 0)">
        <path id="Path_177" data-name="Path 177" d="M220.046,263.5h3.231a.9.9,0,0,0,.95-.95V257.99a.9.9,0,0,0-.95-.95h-3.231a.9.9,0,0,0-.95.95v4.562A1.018,1.018,0,0,0,220.046,263.5Z" transform="translate(-185.073 -217.504)" fill="#fff"/>
        <path id="Path_178" data-name="Path 178" d="M262.887,263.5h3.231a.9.9,0,0,0,.95-.95V257.99a.9.9,0,0,0-.95-.95h-3.231a.9.9,0,0,0-.95.95v4.562A1.018,1.018,0,0,0,262.887,263.5Z" transform="translate(-221.261 -217.504)" fill="#fff"/>
        <path id="Path_179" data-name="Path 179" d="M220.046,208.423h3.231a.9.9,0,0,0,.95-.95V202.91a.9.9,0,0,0-.95-.95h-3.231a.9.9,0,0,0-.95.95v4.562A.9.9,0,0,0,220.046,208.423Z" transform="translate(-185.073 -170.978)" fill="#fff"/>
        <path id="Path_180" data-name="Path 180" d="M262.887,208.423h3.231a.9.9,0,0,0,.95-.95V202.91a.9.9,0,0,0-.95-.95h-3.231a.9.9,0,0,0-.95.95v4.562A.9.9,0,0,0,262.887,208.423Z" transform="translate(-221.261 -170.978)" fill="#fff"/>
        <path id="Path_181" data-name="Path 181" d="M58.038,362.3H54.806a.9.9,0,0,0-.95.95v4.562a.9.9,0,0,0,.95.95h3.231a.9.9,0,0,0,.95-.95v-4.562A.9.9,0,0,0,58.038,362.3Z" transform="translate(-45.493 -306.422)" fill="#fff"/>
        <path id="Path_182" data-name="Path 182" d="M58.038,418.608H54.806a.9.9,0,0,0-.95.95v4.372a.9.9,0,0,0,.95.95h3.231a.9.9,0,0,0,.95-.95v-4.562A.87.87,0,0,0,58.038,418.608Z" transform="translate(-45.493 -353.982)" fill="#fff"/>
        <path id="Path_183" data-name="Path 183" d="M102.1,362.3H98.87a.9.9,0,0,0-.95.95v4.562a.9.9,0,0,0,.95.95H102.1a.9.9,0,0,0,.95-.95v-4.562A.9.9,0,0,0,102.1,362.3Z" transform="translate(-82.714 -306.422)" fill="#fff"/>
        <path id="Path_184" data-name="Path 184" d="M102.1,418.608H98.87a.9.9,0,0,0-.95.95v4.372a.9.9,0,0,0,.95.95H102.1a.9.9,0,0,0,.95-.95v-4.562A.87.87,0,0,0,102.1,418.608Z" transform="translate(-82.714 -353.982)" fill="#fff"/>
        <path id="Path_185" data-name="Path 185" d="M58.038,308.448H54.806a.9.9,0,0,0-.95.95v4.372a.9.9,0,0,0,.95.95h3.231a.9.9,0,0,0,.95-.95v-4.562A.87.87,0,0,0,58.038,308.448Z" transform="translate(-45.493 -260.929)" fill="#fff"/>
        <path id="Path_186" data-name="Path 186" d="M102.1,308.448H98.87a.9.9,0,0,0-.95.95v4.372a.9.9,0,0,0,.95.95H102.1a.9.9,0,0,0,.95-.95v-4.562A.87.87,0,0,0,102.1,308.448Z" transform="translate(-82.714 -260.929)" fill="#fff"/>
        <path id="Path_187" data-name="Path 187" d="M384.062,367.543h3.231a.9.9,0,0,0,.95-.95V362.03a.9.9,0,0,0-.95-.95h-3.231a.9.9,0,0,0-.95.95v4.562A.9.9,0,0,0,384.062,367.543Z" transform="translate(-323.618 -305.388)" fill="#fff"/>
        <path id="Path_188" data-name="Path 188" d="M384.062,423.847h3.231a.9.9,0,0,0,.95-.95v-4.562a.9.9,0,0,0-.95-.95h-3.231a.9.9,0,0,0-.95.95V422.9A.9.9,0,0,0,384.062,423.847Z" transform="translate(-323.618 -352.949)" fill="#fff"/>
        <path id="Path_189" data-name="Path 189" d="M428.126,367.543h3.231a.9.9,0,0,0,.95-.95V362.03a.9.9,0,0,0-.95-.95h-3.231a.9.9,0,0,0-.95.95v4.562A.9.9,0,0,0,428.126,367.543Z" transform="translate(-360.84 -305.388)" fill="#fff"/>
        <path id="Path_190" data-name="Path 190" d="M428.126,423.847h3.231a.9.9,0,0,0,.95-.95v-4.562a.9.9,0,0,0-.95-.95h-3.231a.9.9,0,0,0-.95.95V422.9A.9.9,0,0,0,428.126,423.847Z" transform="translate(-360.84 -352.949)" fill="#fff"/>
        <path id="Path_191" data-name="Path 191" d="M384.062,313.687h3.231a.9.9,0,0,0,.95-.95v-4.562a.9.9,0,0,0-.95-.95h-3.231a.9.9,0,0,0-.95.95v4.562A.9.9,0,0,0,384.062,313.687Z" transform="translate(-323.618 -259.895)" fill="#fff"/>
        <path id="Path_192" data-name="Path 192" d="M428.126,313.687h3.231a.9.9,0,0,0,.95-.95v-4.562a.9.9,0,0,0-.95-.95h-3.231a.9.9,0,0,0-.95.95v4.562A.9.9,0,0,0,428.126,313.687Z" transform="translate(-360.84 -259.895)" fill="#fff"/>
        <path id="Path_193" data-name="Path 193" d="M79.071,35.9a2.858,2.858,0,0,0-2.091-.76H57.023V30.2a2.637,2.637,0,0,0-1.331-2.281L42.767,19.175V16.514h9.314a2.923,2.923,0,0,0,2.851-2.851V7.2a2.923,2.923,0,0,0-2.851-2.851h-9.5a2.859,2.859,0,0,0-2.661-1.9A2.923,2.923,0,0,0,37.065,5.3V19.175L24.14,27.728a2.9,2.9,0,0,0-1.331,2.281v4.942H2.851A3.1,3.1,0,0,0,0,37.992v6.082H0V78.668a2.923,2.923,0,0,0,2.851,2.851H76.98a2.923,2.923,0,0,0,2.851-2.851V44.074h0V37.992A3.986,3.986,0,0,0,79.071,35.9ZM28.511,31.72l11.4-7.6,11.4,7.6V44.074h0V75.817H47.709V62.512a7.828,7.828,0,0,0-7.793-7.793,7.955,7.955,0,0,0-7.793,7.793V75.817H28.511V31.72ZM5.7,46.926H22.809V75.817H5.7ZM74.129,75.817H57.023V46.926H74.129V75.817Z" transform="translate(0 -2.448)" fill="#fff"/>
      </g>
    </g>
  </g>
</svg>
