<svg xmlns="http://www.w3.org/2000/svg" xmlns:xlink="http://www.w3.org/1999/xlink" width="111" height="103" viewBox="0 0 111 103"><defs><style>.a,.e{fill:#fff;}.a{stroke:#707070;}.b,.c{fill:#10a3c1;}.b{opacity:0.5;}.d{clip-path:url(#a);}</style><clipPath id="a"><rect class="a" width="45" height="45" transform="translate(1253 1005)"/></clipPath></defs><g transform="translate(-3204 -1798.5)"><g transform="translate(3203.543 1798.668)"><rect class="b" width="111" height="103" rx="22" transform="translate(0.457 -0.168)"/><rect class="c" width="100" height="90.476" rx="19" transform="translate(5.957 6.094)"/></g><g class="d" transform="translate(1984 822.5)"><path class="e" d="M44.888,32.263a1.4,1.4,0,0,1-2.805,0V13.808L26.608,21.567a9.214,9.214,0,0,1-4.165.877,9.214,9.214,0,0,1-4.165-.877L1.709,13.282Q0,12.405,0,11.2T1.709,9.162L18.279.877A9.214,9.214,0,0,1,22.444,0a9.214,9.214,0,0,1,4.165.877l16.57,8.285A2.665,2.665,0,0,1,44.844,11a.255.255,0,0,1,.044.176V32.264Zm-16.876-7.89,8.46-4.252V26.3q0,1.885-4.1,3.222a32.264,32.264,0,0,1-9.929,1.337,32.264,32.264,0,0,1-9.929-1.337q-4.1-1.337-4.1-3.222V20.121l8.46,4.252a13.163,13.163,0,0,0,5.567.877,13.163,13.163,0,0,0,5.567-.877Z" transform="translate(1253.056 1010.667)"/></g></g></svg>